{
	"asset":{
		"generator":"Maxon Cinema 4D 2025.3.3 (#200000219)",
		"version":"2.0"
	},
	"scenes":[{
		"nodes":[0]
	}],
	"nodes":[{
		"name":"Earbuds_AR",
		"children":[1]
	},
	{
		"name":"Subdivision Surface",
		"translation":[0.0,
		0.4247717261314392,
		0.008165000006556511],
		"rotation":[1.0,
		-6.123234262925839e-17,
		6.123234262925839e-17,
		6.123234262925839e-17],
		"scale":[1.0,
		1.0,
		1.0],
		"children":[2]
	},
	{
		"name":"Connect",
		"translation":[-3.469446874405432e-20,
		-0.03984956815838814,
		-2.7755574995243456e-19],
		"rotation":[0.0,
		0.0,
		0.0,
		-1.0],
		"scale":[1.0,
		1.0,
		1.0],
		"children":[3]
	},
	{
		"name":"Lathe - earbud",
		"mesh":0
	}],
	"meshes":[{
		"name":"Lathe - earbud",
		"primitives":[{
			"attributes":{
				"POSITION":1,
				"NORMAL":2,
				"TEXCOORD_0":3
			},
			"indices":0,
			"material":0
		}]
	}],
	"accessors":[{
		"bufferView":0,
		"type":"SCALAR",
		"componentType":5123,
		"byteOffset":0,
		"count":39744,
		"min":[0],
		"max":[39743]
	},
	{
		"bufferView":1,
		"type":"VEC3",
		"componentType":5126,
		"byteOffset":0,
		"count":39744,
		"min":[-0.37631407380104067,
		-0.5946349501609802,
		-0.2512746751308441],
		"max":[0.16846062242984773,
		0.286291241645813,
		0.2512746751308441]
	},
	{
		"bufferView":1,
		"type":"VEC3",
		"componentType":5126,
		"byteOffset":12,
		"count":39744,
		"min":[-0.9999992847442627,
		-1.0,
		-1.0],
		"max":[1.0,
		1.0,
		1.0]
	},
	{
		"bufferView":1,
		"type":"VEC2",
		"componentType":5126,
		"byteOffset":24,
		"count":39744,
		"min":[0.0,
		0.0],
		"max":[1.0,
		1.0]
	}],
	"bufferViews":[{
		"buffer":0,
		"byteOffset":0,
		"byteLength":79488,
		"target":34963
	},
	{
		"buffer":0,
		"byteOffset":79488,
		"byteLength":1271808,
		"target":34962,
		"byteStride":32
	}],
	"buffers":[{
		"uri":"data:application/octet-stream;base64,",
		"byteLength":1351296
	}],
	"materials":[{
		"pbrMetallicRoughness":{
			"baseColorFactor":[0.2,
			0.2,
			0.2,
			1.0],
			"metallicFactor":1.0,
			"roughnessFactor":0.3
		},
		"emissiveFactor":[0.0,
		0.0,
		0.0],
		"alphaMode":"OPAQUE",
		"name":"Plastic",
		"doubleSided":false
	}]
}